<?xml version="1.0" encoding="UTF-8"?>
<svg version="1.1" xmlns="http://www.w3.org/2000/svg" width="512" height="512">
<path d="M0 0 C1.01441162 0.00182281 2.02882324 0.00364563 3.07397461 0.00552368 C17.69281001 0.04976292 31.94269023 0.38069588 46.3125 3.3125 C47.21677734 3.48942383 48.12105469 3.66634766 49.05273438 3.84863281 C75.51000304 9.12005695 100.78676874 18.07217298 124.3125 31.3125 C125.23546875 31.78945313 126.1584375 32.26640625 127.109375 32.7578125 C138.97755151 38.90257845 149.92925378 46.93657735 160.3125 55.3125 C161.11244385 55.94478516 161.9123877 56.57707031 162.73657227 57.22851562 C169.72859679 62.82575303 176.13414133 68.83094843 182.4375 75.1875 C183.36175781 76.10402344 184.28601563 77.02054687 185.23828125 77.96484375 C202.3125 95.08722673 202.3125 95.08722673 202.3125 99.3125 C202.9725 99.3125 203.6325 99.3125 204.3125 99.3125 C206.91389056 102.43993353 209.06661146 105.92441672 211.3125 109.3125 C212.37404297 110.90578125 212.37404297 110.90578125 213.45703125 112.53125 C231.60563469 140.08875626 244.26076128 169.75409743 251.5625 201.9375 C251.93181641 203.54383301 251.93181641 203.54383301 252.30859375 205.18261719 C255.78941815 221.09152316 256.66271695 236.65262524 256.62817383 252.89428711 C256.62502175 255.97871574 256.64854488 259.06217383 256.67382812 262.14648438 C256.73205188 280.15538681 254.80375119 297.71299377 250.625 315.25 C250.37226318 316.32427246 250.11952637 317.39854492 249.85913086 318.50537109 C242.62197946 348.14571525 229.81205183 376.98981773 212.05078125 401.83984375 C209.78765641 405.05907527 207.67509549 408.36844468 205.57421875 411.6953125 C205.15785156 412.22898437 204.74148438 412.76265625 204.3125 413.3125 C203.6525 413.3125 202.9925 413.3125 202.3125 413.3125 C202.06314697 413.86897217 201.81379395 414.42544434 201.55688477 414.9987793 C196.73384399 423.96639896 188.53722094 431.41021182 181.35620117 438.52954102 C179.87244574 440.00253573 178.39975044 441.48598673 176.92773438 442.97070312 C171.04953865 448.85850775 164.95672567 454.29055056 158.3125 459.3125 C157.56202393 459.88073486 156.81154785 460.44896973 156.03833008 461.03442383 C147.11688446 467.69923962 138.13037815 474.0268701 128.3125 479.3125 C126.94138318 480.07547938 125.57029135 480.83850366 124.19921875 481.6015625 C103.47281164 492.98076641 82.27720984 500.79074275 59.3125 506.3125 C58.45366211 506.52632324 57.59482422 506.74014648 56.70996094 506.96044922 C55.9162207 507.15783691 55.12248047 507.35522461 54.3046875 507.55859375 C53.63550293 507.72544678 52.96631836 507.8922998 52.27685547 508.06420898 C35.16087434 511.95913752 18.13166076 512.69036412 0.625 512.625 C-0.89611893 512.62226578 -0.89611893 512.62226578 -2.44796753 512.61947632 C-17.05105621 512.57526774 -31.34020007 512.30224368 -45.6875 509.3125 C-46.55407227 509.13557617 -47.42064453 508.95865234 -48.31347656 508.77636719 C-54.49183925 507.47978437 -60.59413881 505.95995565 -66.6875 504.3125 C-67.9259668 503.98209717 -67.9259668 503.98209717 -69.18945312 503.64501953 C-88.33057541 498.46065183 -106.41714205 491.03229083 -123.6875 481.3125 C-124.61046875 480.83554687 -125.5334375 480.35859375 -126.484375 479.8671875 C-138.35255151 473.72242155 -149.30425378 465.68842265 -159.6875 457.3125 C-160.48744385 456.68021484 -161.2873877 456.04792969 -162.11157227 455.39648438 C-169.10359679 449.79924697 -175.50914133 443.79405157 -181.8125 437.4375 C-182.73675781 436.52097656 -183.66101563 435.60445313 -184.61328125 434.66015625 C-201.6875 417.53777327 -201.6875 417.53777327 -201.6875 413.3125 C-202.3475 413.3125 -203.0075 413.3125 -203.6875 413.3125 C-206.28889056 410.18506647 -208.44161146 406.70058328 -210.6875 403.3125 C-211.39519531 402.2503125 -212.10289062 401.188125 -212.83203125 400.09375 C-230.98063469 372.53624374 -243.63576128 342.87090257 -250.9375 310.6875 C-251.18371094 309.61661133 -251.42992187 308.54572266 -251.68359375 307.44238281 C-255.16441815 291.53347684 -256.03771695 275.97237476 -256.00317383 259.73071289 C-256.00002175 256.64628426 -256.02354488 253.56282617 -256.04882812 250.47851562 C-256.10705188 232.46961319 -254.17875119 214.91200623 -250 197.375 C-249.62089478 195.76359131 -249.62089478 195.76359131 -249.23413086 194.11962891 C-241.99697946 164.47928475 -229.18705183 135.63518227 -211.42578125 110.78515625 C-209.16265641 107.56592473 -207.05009549 104.25655532 -204.94921875 100.9296875 C-204.53285156 100.39601563 -204.11648437 99.86234375 -203.6875 99.3125 C-203.0275 99.3125 -202.3675 99.3125 -201.6875 99.3125 C-201.31347046 98.47779175 -201.31347046 98.47779175 -200.93188477 97.6262207 C-196.10884399 88.65860104 -187.91222094 81.21478818 -180.73120117 74.09545898 C-179.24744574 72.62246427 -177.77475044 71.13901327 -176.30273438 69.65429688 C-170.42453865 63.76649225 -164.33172567 58.33444944 -157.6875 53.3125 C-156.93702393 52.74426514 -156.18654785 52.17603027 -155.41333008 51.59057617 C-146.49188446 44.92576038 -137.50537815 38.5981299 -127.6875 33.3125 C-126.31638318 32.54952062 -124.94529135 31.78649634 -123.57421875 31.0234375 C-104.56739952 20.59189258 -84.75982243 12.45984977 -63.6875 7.3125 C-62.74487305 7.08191895 -61.80224609 6.85133789 -60.83105469 6.61376953 C-57.8918675 5.90857993 -54.94815837 5.22913673 -52 4.5625 C-51.1349585 4.36358154 -50.26991699 4.16466309 -49.37866211 3.9597168 C-33.0330294 0.43667751 -16.65628723 -0.06218338 0 0 Z " fill="#FEFEFE" transform="translate(255.6875,-0.3125)"/>
<path d="M0 0 C2.10546875 1.73046875 2.10546875 1.73046875 4.1875 4.1875 C4.95320313 5.08597656 5.71890625 5.98445313 6.5078125 6.91015625 C10.77294149 12.19811397 14.92123379 17.56732183 19 23 C19.77859375 22.7834375 20.5571875 22.566875 21.359375 22.34375 C35.74322287 18.76435929 54.26900925 17.13450462 68 24 C68.23074219 23.47148438 68.46148437 22.94296875 68.69921875 22.3984375 C70.4202834 19.22506303 72.5952308 16.45944722 74.8125 13.625 C75.23853516 13.07328125 75.66457031 12.5215625 76.10351562 11.953125 C76.962252 10.84625149 77.8267517 9.7438247 78.69702148 8.64599609 C79.57801235 7.53307864 80.44708286 6.41063689 81.30493164 5.27978516 C83.82902923 2.04997933 84.67237414 1.07519282 88.8125 0.125 C89.864375 0.08375 90.91625 0.0425 92 0 C98.63034323 7.49517061 96.5142027 21.59372643 96 31 C95.36719563 36.96168332 94.65759663 43.39172295 91.40625 48.5078125 C88.5983636 53.48401117 89.57062979 59.61993556 91 65 C92.44621348 68.44853445 94.24120201 71.66997841 96.2043457 74.84912109 C98.58942612 78.76804474 99.44057506 81.41242473 99 86 C97.02 85.01 97.02 85.01 95 84 C94.67 84.33 94.34 84.66 94 85 C96.16374214 92.4876866 99.06184677 97.92932262 104.1953125 103.80859375 C108.17283473 108.63844217 108.2027198 111.9184061 108 118 C107.01 117.34 106.02 116.68 105 116 C104.90203125 116.7734375 104.8040625 117.546875 104.703125 118.34375 C103.63611337 125.7760379 102.58073775 132.817122 96.75 138 C96.1725 138.33 95.595 138.66 95 139 C94.505 136.525 94.505 136.525 94 134 C93.71801758 134.55985596 93.43603516 135.11971191 93.14550781 135.6965332 C91.85707003 138.24043278 90.55374878 140.77641564 89.25 143.3125 C88.58484375 144.63411133 88.58484375 144.63411133 87.90625 145.98242188 C87.24882812 147.25375977 87.24882812 147.25375977 86.578125 148.55078125 C86.18012695 149.33106689 85.78212891 150.11135254 85.37207031 150.9152832 C83.85713712 153.21706514 82.28131423 154.48407094 80 156 C79.67 155.34 79.34 154.68 79 154 C78.63648438 154.60585937 78.27296875 155.21171875 77.8984375 155.8359375 C77.14433594 157.09277344 77.14433594 157.09277344 76.375 158.375 C75.83101563 159.2825 75.28703125 160.19 74.7265625 161.125 C73.59943155 163.00185154 72.46935336 164.87693717 71.3359375 166.75 C70.81257813 167.61625 70.28921875 168.4825 69.75 169.375 C69.27046875 170.16648438 68.7909375 170.95796875 68.296875 171.7734375 C67.10805779 173.8144791 66.0287261 175.87461305 65 178 C64.67 178 64.34 178 64 178 C63.505 175.525 63.505 175.525 63 173 C62.14728516 174.01320312 62.14728516 174.01320312 61.27734375 175.046875 C51.56845641 186.26315219 51.56845641 186.26315219 43.125 187.625 C37.78919243 187.30505796 33.9075092 184.45395903 30 181 C27.46211239 178.13088073 25.17702064 175.15002986 23 172 C22.505 174.97 22.505 174.97 22 178 C20.42024935 175.63037403 18.96690261 173.26455767 17.5390625 170.8046875 C17.06726563 170.00675781 16.59546875 169.20882812 16.109375 168.38671875 C15.11837708 166.70984596 14.13660333 165.02748813 13.1640625 163.33984375 C12.6896875 162.54449219 12.2153125 161.74914062 11.7265625 160.9296875 C11.08581787 159.83503174 11.08581787 159.83503174 10.43212891 158.71826172 C8.70003845 156.6401075 7.60223031 156.48040158 5 156 C-0.63861039 149.9185668 -3.73386099 141.49358843 -7 134 C-7.66 135.65 -8.32 137.3 -9 139 C-15.24286556 133.60076492 -16.92455218 128.13114251 -17.6875 120 C-17.80293767 118.33407605 -17.91110482 116.66755093 -18 115 C-19.32 116.32 -20.64 117.64 -22 119 C-22.84193667 111.42256995 -20.33452856 107.11745041 -16 101 C-15.29875 100.175 -14.5975 99.35 -13.875 98.5 C-10.93963893 94.58618524 -8 88.99552852 -8 84 C-9.65 84.99 -11.3 85.98 -13 87 C-12.81812373 81.36183575 -12.18364547 77.86367342 -9.0625 73.125 C-5.67083491 67.90329979 -4.62360935 63.13865458 -4 57 C-3.87625 55.96875 -3.7525 54.9375 -3.625 53.875 C-3.99317214 51.05234692 -4.67169666 49.35829475 -5.875 46.8125 C-9.79967184 38.37863072 -10.17953825 29.9901424 -10.25 20.8125 C-10.2593457 19.96905029 -10.26869141 19.12560059 -10.27832031 18.2565918 C-10.24817131 12.35028564 -10.02221389 6.08146879 -6.6875 1 C-4.27539629 -0.42939479 -2.7724846 -0.33840621 0 0 Z " fill="#282828" transform="translate(110,76)"/>
<path d="M0 0 C3.97984726 0.7404367 5.49449047 3.35743995 7.6875 6.5 C8.285625 7.2425 8.88375 7.985 9.5 8.75 C12.6982023 16.15636321 10.30300113 24.91291432 8.6875 32.5 C9.6775 31.84 10.6675 31.18 11.6875 30.5 C11.3575 28.52 11.0275 26.54 10.6875 24.5 C13.9875 24.17 17.2875 23.84 20.6875 23.5 C23.85883613 27.46417016 25.1941008 29.84012258 25.05273438 35.14501953 C24.3020172 39.98553949 22.00783561 44.28980163 19.9375 48.6875 C13.15372457 63.44621066 13.15372457 63.44621066 10.25 79.3125 C9.87510456 85.57599693 7.25743461 89.63002227 3.1484375 94.21875 C1.6875 95.5 1.6875 95.5 -0.3125 95.5 C0.28933749 97.52045442 0.96056096 99.52111039 1.6875 101.5 C2.3475 101.83 3.0075 102.16 3.6875 102.5 C3.336875 103.180625 2.98625 103.86125 2.625 104.5625 C1.06559085 109.44864868 2.01763352 113.18603114 4.3125 117.6875 C5.6875 120.5 5.6875 120.5 5.375 122.875 C5.148125 123.41125 4.92125 123.9475 4.6875 124.5 C3.2025 123.51 3.2025 123.51 1.6875 122.5 C2.161875 123.0775 2.63625 123.655 3.125 124.25 C5.91468564 128.26714733 5.80228371 131.93989842 5.75 136.75 C5.74097656 137.82765625 5.73195313 138.9053125 5.72265625 140.015625 C5.71105469 140.83546875 5.69945312 141.6553125 5.6875 142.5 C4.1875 141.125 4.1875 141.125 2.6875 139.5 C2.6875 138.84 2.6875 138.18 2.6875 137.5 C2.0275 137.5 1.3675 137.5 0.6875 137.5 C-0.34761528 140.88276283 -0.40038595 143.91866162 -0.33984375 147.4453125 C-0.32759766 148.60546875 -0.31535156 149.765625 -0.30273438 150.9609375 C-0.26791451 153.38027312 -0.22893465 155.79955287 -0.18554688 158.21875 C-0.11960512 165.24736489 -0.56581706 171.6798056 -2.3125 178.5 C-4.06348126 175.87352812 -5.69981308 173.21224618 -7.3125 170.5 C-7.88979183 176.99453306 -6.2936264 182.70858539 -3.3125 188.5 C-0.78030205 191.28859202 -0.78030205 191.28859202 1.6875 193.5 C-1.08359307 193.55392397 -3.85363818 193.59363455 -6.625 193.625 C-7.41068359 193.64175781 -8.19636719 193.65851563 -9.00585938 193.67578125 C-9.76318359 193.68222656 -10.52050781 193.68867188 -11.30078125 193.6953125 C-11.99727783 193.70578613 -12.69377441 193.71625977 -13.41137695 193.72705078 C-15.3125 193.5 -15.3125 193.5 -18.3125 191.5 C-19.3025 195.46 -19.3025 195.46 -20.3125 199.5 C-23.3125 196.5 -26.3125 193.5 -29.3125 190.5 C-29.498125 192.2015625 -29.498125 192.2015625 -29.6875 193.9375 C-29.89375 195.113125 -30.1 196.28875 -30.3125 197.5 C-30.9725 197.83 -31.6325 198.16 -32.3125 198.5 C-32.61542969 197.98050781 -32.91835938 197.46101562 -33.23046875 196.92578125 C-35.87944851 192.51624878 -38.52131997 188.97524836 -42.3125 185.5 C-42.6425 185.17 -42.9725 184.84 -43.3125 184.5 C-43.3125 186.81 -43.3125 189.12 -43.3125 191.5 C-52.60401382 189.29937831 -60.01575864 182.35969506 -66.3125 175.5 C-65.8145163 179.23487777 -65.43758244 181.31237635 -63.3125 184.5 C-71.98439085 183.52091555 -76.28772662 179.60845078 -82.3125 173.5 C-82.6425 173.17 -82.9725 172.84 -83.3125 172.5 C-83.6425 174.81 -83.9725 177.12 -84.3125 179.5 C-90.17997118 174.60485262 -91.64803805 164.80908148 -92.3125 157.5 C-94.7875 159.48 -94.7875 159.48 -97.3125 161.5 C-97.9725 161.17 -98.6325 160.84 -99.3125 160.5 C-98.9825 159.55125 -98.6525 158.6025 -98.3125 157.625 C-96.61956899 151.72975798 -96.6193261 145.39224518 -98.3125 139.5 C-100.6225 139.83 -102.9325 140.16 -105.3125 140.5 C-104.77109375 139.67822266 -104.77109375 139.67822266 -104.21875 138.83984375 C-100.24575907 132.05265091 -100.03691271 126.78630676 -100.3359375 119.01953125 C-100.30570559 114.47970565 -99.290376 111.53816349 -97.3125 107.5 C-98.63894531 107.13648438 -98.63894531 107.13648438 -99.9921875 106.765625 C-107.1054995 104.05419784 -113.95657783 97.37165016 -117.3125 90.5 C-117.0625 88.125 -117.0625 88.125 -116.3125 86.5 C-114.889375 86.0978125 -114.889375 86.0978125 -113.4375 85.6875 C-112.79554688 85.50058594 -112.15359375 85.31367188 -111.4921875 85.12109375 C-110.00312744 84.69679169 -108.50779816 84.29405089 -107.0078125 83.91015625 C-91.77789141 79.79856414 -81.51088986 70.73831278 -71.859375 58.60546875 C-52.93025931 35.17491701 -52.93025931 35.17491701 -39.3125 32.5 C-38.2296875 32.44005859 -38.2296875 32.44005859 -37.125 32.37890625 C-30.71303265 32.02148239 -27.60546948 30.24843126 -23.3125 25.5 C-21.34265934 23.16318689 -19.44443748 20.78540769 -17.5703125 18.37109375 C-14.9321117 15.01628823 -12.19790505 11.75436752 -9.4375 8.5 C-8.96086914 7.93595459 -8.48423828 7.37190918 -7.99316406 6.79077148 C-2.7326119 0.59083501 -2.7326119 0.59083501 0 0 Z " fill="#282828" transform="translate(398.3125,236.5)"/>
<path d="M0 0 C2.97784376 2.21180424 3.89265792 3.5237062 4.71484375 7.171875 C5.29196197 16.44626612 5.05432112 22.47240947 -0.875 29.75 C-2.77925865 31.85370719 -4.49849939 33.36556622 -6.8125 35.0625 C-9.27356769 36.88962207 -9.27356769 36.88962207 -9.875 40.125 C-10.23068039 42.94334166 -10.23068039 42.94334166 -9 45 C-7.35 45 -5.7 45 -4 45 C-4 43.35 -4 41.7 -4 40 C-0.51370695 41.0756258 2.7895241 42.25376142 6 44 C7.4375 46.75 7.4375 46.75 7 50 C4.90996059 55.03553681 2.06024875 58.71289043 -2.90625 61.20703125 C-6.30544455 62.49441277 -9.80368635 63.3211466 -13.3515625 64.09375 C-19.68836595 66.26209572 -22.96840101 71.19944162 -26.37890625 76.65625 C-28.53352517 81.10047601 -29.43187868 85.53342211 -30.43725586 90.34082031 C-31.63077197 95.56474368 -33.3761993 98.57526228 -37.4140625 102.03125 C-39 103 -39 103 -41 103 C-41.495 104.485 -41.495 104.485 -42 106 C-44 105 -44 105 -45 102 C-45.47179687 103.32064453 -45.47179687 103.32064453 -45.953125 104.66796875 C-46.38109375 105.82941406 -46.8090625 106.99085938 -47.25 108.1875 C-47.66765625 109.33605469 -48.0853125 110.48460937 -48.515625 111.66796875 C-50.88201815 116.97989863 -53.73263104 120.48602845 -59 123 C-63.33756951 124.41059171 -67.41129084 125.28679432 -72 125 C-72 123.68 -72 122.36 -72 121 C-72.53109375 121.27714844 -73.0621875 121.55429687 -73.609375 121.83984375 C-74.66898438 122.38318359 -74.66898438 122.38318359 -75.75 122.9375 C-76.79414063 123.47697266 -76.79414063 123.47697266 -77.859375 124.02734375 C-82.1832865 125.99204076 -85.95549292 126.0781797 -90.6875 126.1875 C-97.60661439 126.60684027 -101.80071446 128.50220537 -107 133 C-107.125 128.25 -107.125 128.25 -106 126 C-106.66902344 126.2165625 -107.33804688 126.433125 -108.02734375 126.65625 C-114.4201825 128.50974419 -120.37889022 129.30111252 -127 129.3125 C-128.09429321 129.32023437 -128.09429321 129.32023437 -129.21069336 129.328125 C-132.94909049 129.2794898 -135.82787223 129.0734481 -139 127 C-136.69 126.01 -134.38 125.02 -132 124 C-132.56807373 123.95512451 -133.13614746 123.91024902 -133.72143555 123.86401367 C-144.71087561 122.97201727 -155.34474547 121.96528419 -166 119 C-164.9096507 111.79067552 -162.75050635 105.34446227 -160.0234375 98.58984375 C-158.93874703 96.30911873 -158.93874703 96.30911873 -159 95 C-160.65 95 -162.3 95 -164 95 C-163.52949219 94.02160156 -163.05898437 93.04320312 -162.57421875 92.03515625 C-159.28027772 85.12184869 -156.19430925 78.35738983 -154 71 C-156.475 71.495 -156.475 71.495 -159 72 C-157.88744798 68.99610954 -156.89302122 67.92219725 -154.25 66 C-149.45614002 62.28062588 -147.42766726 56.39768571 -145 51 C-145.66 50.67 -146.32 50.34 -147 50 C-147 49.34 -147 48.68 -147 48 C-145.576875 47.319375 -145.576875 47.319375 -144.125 46.625 C-137.15480163 42.64606085 -131.73208382 36.18986172 -126.75 30 C-121.85387995 24.21475403 -115.22832763 20.21556711 -109 16 C-110.36370299 13.00779732 -111.94908083 10.70973471 -114.125 8.25 C-114.66382813 7.63640625 -115.20265625 7.0228125 -115.7578125 6.390625 C-116.16773438 5.93171875 -116.57765625 5.4728125 -117 5 C-116.34 4.01 -115.68 3.02 -115 2 C-112.43304733 1.88666199 -110.16442851 1.95140336 -107.625 2.1875 C-106.54895508 2.27052368 -106.54895508 2.27052368 -105.45117188 2.35522461 C-100.10932136 2.8029554 -94.87442682 3.64066374 -89.59765625 4.578125 C-83.97698585 5.49095568 -79.34623762 5.18039467 -73.875 3.5 C-64.36257395 0.74258385 -55.0925735 0.83838373 -45.98828125 4.83203125 C-44 6 -44 6 -42.55078125 7.66796875 C-41.0473041 9.24741181 -41.0473041 9.24741181 -38.6796875 9.03125 C-28.74821853 7.15008039 -18.6021913 4.68909477 -9.21875 0.8671875 C-5.98482072 -0.39677782 -3.43266902 -0.37447298 0 0 Z " fill="#282828" transform="translate(237,302)"/>
<path d="M0 0 C2.19629783 3.54143525 2.23275752 6.39667247 2.1953125 10.515625 C2.18886719 11.76601562 2.18242187 13.01640625 2.17578125 14.3046875 C2.15064453 16.25761719 2.15064453 16.25761719 2.125 18.25 C2.11597656 19.56742188 2.10695313 20.88484375 2.09765625 22.2421875 C2.07408533 25.49497462 2.04118022 28.74739589 2 32 C2.61641357 32.29567871 3.23282715 32.59135742 3.86791992 32.89599609 C11.10115658 36.6414096 16.94321605 43.74522484 22 50 C22.48597656 50.598125 22.97195313 51.19625 23.47265625 51.8125 C27.10772722 56.5603478 28.64739041 60.97706611 29.34765625 66.98046875 C31.2347358 82.60841881 39.83592798 90.66874239 51.63671875 100.109375 C53.10106044 101.24212196 54.57470301 102.36308499 56.0625 103.46484375 C58.22949828 105.18184037 60.1559192 106.93824374 62 109 C62.09084931 112.54312301 61.07341291 113.90715427 58.875 116.6875 C55.63901802 119.29035507 53.01090481 120.07440658 49 121 C48.67 121.33 48.34 121.66 48 122 C40.03682572 122.43435496 31.61648518 121.85208914 25 117 C25.99 118.98 26.98 120.96 28 123 C29.32 122.67 30.64 122.34 32 122 C31.979375 122.886875 31.95875 123.77375 31.9375 124.6875 C31.99286219 127.62169631 32.3305734 130.15493696 33 133 C30.08180442 135.91819558 28.37943064 136.9430854 24.25 137.5625 C18.34573152 137.25174903 13.78018407 133.86615095 9.00390625 130.66015625 C2.20147069 126.15713553 -5.54249435 123.13994665 -13.828125 123.375 C-18.3393555 124.67319583 -21.06746806 128.53005837 -24 132 C-24.98987134 133.01002709 -25.98610242 134.01409346 -27 135 C-27.33 134.34 -27.66 133.68 -28 133 C-28.4846875 133.39832031 -28.969375 133.79664063 -29.46875 134.20703125 C-37.46123042 140.52416481 -43.66640399 142.28449314 -53.8515625 142.69140625 C-57.15267765 143.01496468 -59.90187043 143.8416903 -63 145 C-62.67 143.35 -62.34 141.7 -62 140 C-62.93199219 140.40992188 -63.86398437 140.81984375 -64.82421875 141.2421875 C-73.16510164 144.80380939 -80.89370723 147.10933393 -90 148 C-88.35 146.02 -86.7 144.04 -85 142 C-86.24394531 142.40992188 -87.48789062 142.81984375 -88.76953125 143.2421875 C-97.43502681 146.06075853 -105.92792883 148.81757275 -115 150 C-114.319375 149.401875 -113.63875 148.80375 -112.9375 148.1875 C-105.95184225 141.14230539 -101.93400225 132.33832975 -99 123 C-98.505 121.515 -98.505 121.515 -98 120 C-98.55429687 120.22816406 -99.10859375 120.45632812 -99.6796875 120.69140625 C-100.40414063 120.97886719 -101.12859375 121.26632813 -101.875 121.5625 C-102.59429687 121.85253906 -103.31359375 122.14257812 -104.0546875 122.44140625 C-106 123 -106 123 -108 122 C-105.36 119.69 -102.72 117.38 -100 115 C-101.98 115.495 -101.98 115.495 -104 116 C-104.66 115.67 -105.32 115.34 -106 115 C-105.52949219 114.43152344 -105.05898438 113.86304688 -104.57421875 113.27734375 C-97.25003595 104.19414396 -94.81119722 96.7782092 -94.9375 85.1875 C-94.94201172 84.39923828 -94.94652344 83.61097656 -94.95117188 82.79882812 C-94.96288688 80.86585239 -94.98082002 78.93291607 -95 77 C-96.32 78.65 -97.64 80.3 -99 82 C-99.02703381 80.06257659 -99.04641125 78.12504521 -99.0625 76.1875 C-99.07410156 75.10855469 -99.08570313 74.02960938 -99.09765625 72.91796875 C-99 70 -99 70 -98 67 C-99.423125 67.7734375 -99.423125 67.7734375 -100.875 68.5625 C-101.90625 69.036875 -102.9375 69.51125 -104 70 C-104.66 69.67 -105.32 69.34 -106 69 C-105.4946875 68.30132812 -104.989375 67.60265625 -104.46875 66.8828125 C-103.8190625 65.97273438 -103.169375 65.06265625 -102.5 64.125 C-101.8503125 63.22007812 -101.200625 62.31515625 -100.53125 61.3828125 C-98.81979394 59.19164492 -98.81979394 59.19164492 -99 57 C-100.299375 57.9590625 -100.299375 57.9590625 -101.625 58.9375 C-105.00156063 61.00095372 -107.15171071 61.48797271 -111 62 C-104.91878346 51.83296609 -99.26947877 42.62853592 -88 38 C-88.99 36.68 -89.98 35.36 -91 34 C-89.76507813 33.91363281 -88.53015625 33.82726562 -87.2578125 33.73828125 C-78.58298892 33.04754184 -70.38936406 32.09330421 -62.0625 29.5 C-51.74466324 26.29823391 -40.808933 25 -30 25 C-29.7215625 23.7625 -29.7215625 23.7625 -29.4375 22.5 C-25.34462184 12.53473145 -11.11531341 -0.29250825 0 0 Z " fill="#282828" transform="translate(379,76)"/>
<path d="M0 0 C1.27230469 0.01804687 2.54460937 0.03609375 3.85546875 0.0546875 C5.31919922 0.08949219 5.31919922 0.08949219 6.8125 0.125 C6.8125 0.785 6.8125 1.445 6.8125 2.125 C3.78232862 4.60423113 2.2632085 5.1491451 -1.6875 4.9375 C-4.70823561 4.23625781 -7.37112032 3.40517258 -10.1875 2.125 C-6.4507157 -0.36618953 -4.44298181 -0.0815226 0 0 Z " fill="#E4E4E4" transform="translate(184.1875,315.875)"/>
<path d="M0 0 C5.86034386 0.28587043 9.07516394 2.91259677 13 7 C13 7.33 13 7.66 13 8 C9.875 8.5 9.875 8.5 6 8 C3.57047394 5.59682455 1.7737836 2.91082436 0 0 Z " fill="#E2E2E2" transform="translate(390,145)"/>
<path d="M0 0 C-1.5 2.5 -1.5 2.5 -4 5 C-6.80138565 5.45442324 -9.13800875 5.23849927 -12 5 C-5.60587432 -1.7397541 -5.60587432 -1.7397541 0 0 Z " fill="#ECECEC" transform="translate(362,280)"/>
<path d="M0 0 C-6 6 -6 6 -9.0625 6.0625 C-10.031875 6.041875 -11.00125 6.02125 -12 6 C-12.33 5.34 -12.66 4.68 -13 4 C-8.38987758 1.04952165 -5.63470383 -0.5497272 0 0 Z " fill="#EFEFEF" transform="translate(180,140)"/>
<path d="M0 0 C5.63470383 -0.5497272 8.38987758 1.04952165 13 4 C12.67 4.66 12.34 5.32 12 6 C9.04876854 6.35133708 6.8502099 6.52850886 4.265625 4.921875 C2.77831883 3.6895356 1.38214043 2.34923232 0 1 C0 0.67 0 0.34 0 0 Z " fill="#EEEEEE" transform="translate(126,140)"/>
<path d="M0 0 C0.763125 0.309375 1.52625 0.61875 2.3125 0.9375 C4.18789677 1.67893593 6.08684652 2.36228217 8 3 C7.67 4.32 7.34 5.64 7 7 C4.625 6.6875 4.625 6.6875 2 6 C0 3 0 3 0 0 Z " fill="#E1E1E1" transform="translate(404,193)"/>
<path d="M0 0 C0.99 0.99 1.98 1.98 3 3 C2.9375 5.0625 2.9375 5.0625 2 7 C0.02 7.99 0.02 7.99 -2 9 C-1.34 6.03 -0.68 3.06 0 0 Z " fill="#EFEFEF" transform="translate(408,261)"/>
</svg>
