<?xml version="1.0" encoding="utf-8"?>
<!-- Generator: Adobe Illustrator 27.5.0, SVG Export Plug-In . SVG Version: 6.00 Build 0)  -->
<svg version="1.1" xmlns="http://www.w3.org/2000/svg" xmlns:xlink="http://www.w3.org/1999/xlink" x="0px" y="0px"
	 viewBox="0 0 500 500" style="enable-background:new 0 0 500 500;" xml:space="preserve">
<g id="BACKGROUND">
	<rect x="0" style="fill:#FFFFFF;" width="500" height="500"/>
</g>
<g id="OBJECTS">
	<path style="fill:#2B2B2B;" d="M409.887,255.297c-0.942-1.035-2.156-1.95-3.554-2.027c-1.397-0.077-3.209,0.979-3.156,2.377
		c-1.359-0.515-2.866-0.63-4.288-0.329c0.687,1.256,1.698,2.418,2.835,3.288c-0.95,2.479-3.111,4.543-5.704,5.11
		c1.512-5.486,2.652-11.075,3.407-16.715c0.236-1.759,0.384-3.72-0.687-5.135c-0.838-1.107-2.094-1.833-2.559-3.142
		c-0.76-2.138-1.695-4.303-3.372-5.831c-1.677-1.528-4.275-2.255-6.271-1.176c-0.965,0.521-1.685,1.391-2.381,2.239
		c-6.009,7.327-12.019,14.655-18.029,21.982c-1.455,1.774-2.963,3.585-4.642,5.155c-1.051,0.404-1.902,0.974-2.499,1.742
		c-4.943,0.118-9.995,0.257-14.623,1.997c-6.653,2.501-11.656,7.993-16.389,13.295c-3.258,3.65-6.238,6.758-9.347,10.537
		c-4.977,6.05-10.231,11.961-16.517,16.637c-6.286,4.676-13.716,8.085-21.536,8.561c-1.12,0.068-2.258,0.079-3.338,0.387
		c-1.079,0.308-2.12,0.969-2.585,1.991c-0.697,1.533,0.074,3.311,0.937,4.757c4.266,7.149,11.171,12.683,19.077,15.289
		c-1.713,3.018-3.051,6.241-3.488,9.696c-0.516,4.079,1.047,8.02,0.215,12.141c-0.786,3.891-3.045,7.462-6.016,10.056
		c2.837,0.415,5.921-0.375,8.087-2.072c1.122,7.515,2.158,15.528-1.707,22.475c3.177-0.479,6.042-2.441,7.303-5
		c0.085,6.448,2.278,13.016,4.617,19.088c0.636,1.651,1.412,3.352,2.968,4.454c-0.932-3.128-1.014-6.458-0.238-9.661
		c2.544,3.148,5.119,6.328,8.465,8.863c3.345,2.535,7.584,4.404,12.117,4.44c-3.036-2.577-4.457-6.48-3.696-10.157
		c5.661,7.84,14.382,14.019,24.119,17.992c-1.592-2.653-2.267-5.721-1.921-8.735c5.802,4.016,10.204,9.479,12.552,15.579
		c1.119-3.099,1.82-6.299,2.085-9.515c3.463,2.856,6.314,6.254,8.378,9.987c1.198-2.967,1.703-6.122,1.478-9.22
		c1.502,2.435,5.16,3.128,8.405,3.297c4.24,0.221,8.53-0.023,12.73-0.725c-3.503-0.631-5.736-3.493-7.143-6.295
		c-2.608-5.193-3.626-10.996-2.926-16.696c2.854,2.479,4.611,5.866,4.866,9.386c2.682-9.06,3.421-18.492,2.167-27.677
		c-0.603-4.418-1.412-9.533,2.212-12.837c2.343,1.782,3.392,4.72,2.636,7.384c3.339-8.36,2.106-17.223-4.29-23.891
		c2.753,0.644,4.962,2.659,5.539,5.056c0.871-2.694-0.341-5.488-1.736-7.956c-1.396-2.468-3.033-4.972-3.053-7.745
		s2.312-5.861,5.553-5.896c-2.964,0.097-8.202-3.482-6.358-6.926c0.429-0.8,1.195-1.352,1.907-1.915
		c4.756-3.755,8.154-9.053,7.711-15.305c-0.446-6.299,2.412-12.149,4.532-17.905c2.166-5.88,4.117-11.092,7.164-16.645
		c1.315-2.397,2.629-4.862,3.083-7.558C413.618,262.107,412.441,258.102,409.887,255.297z M350.511,277.371
		c-3.303,0.705-6.951,1.162-10.315,1.47c1.767-1.731,3.573-3.49,5.783-4.601c1.334-0.671,2.78-1.086,4.215-1.497
		c1.217-0.349,2.435-0.698,3.652-1.047C352.913,273.588,351.845,275.736,350.511,277.371z"/>
	<path style="fill:#2B2B2B;" d="M429.349,179.637c-9.692-9.175-22.505-15.908-28.68-27.741c-3.177-6.087-2.007-13.581-4.356-20.033
		c-1.429-3.924-4.09-7.266-6.853-10.397c-5.03-5.699-10.918-11.367-16.853-16.117c-1.229-9.462,0.587-19.2-1.335-28.545
		c-0.144-0.699-0.326-1.428-0.815-1.948c-0.761-0.81-2.027-0.869-3.125-0.692c-3.124,0.503-5.821,2.397-8.395,4.238
		c-6.352,4.546-12.91,9.318-16.697,16.15c-0.725,1.308-1.538,2.548-1.871,4.007c-0.457,1.319-13.893,1.55-15.389,1.696
		c-8.223,0.801-14.977,3.003-22.977,5.168c-7.186,1.945-14.754,2.467-22.139,1.529c2.937,2.586,6.916,3.952,10.822,3.714
		c-7.868,0.311-15.492,4.478-20.002,10.933c-3.215,4.602-5.185,10.519-10.112,13.208c5.456-0.273,10.774-2.702,14.552-6.647
		c-1.949,5.388-5.039,10.362-9.005,14.497c3.286-0.327,6.037-2.237,8.812-4.138c-1.984,5.961-2.634,12.363-1.848,18.597
		c0.612-3.664,2.654-7.07,5.596-9.337c-2.12,7.75,0.24,15.65-1.967,23.376c-1.772,6.2-6.071,11.311-10.258,16.216
		c2.424-0.736,4.755-1.776,6.922-3.087c-1.521,4.121-5.249,6.95-8.793,9.545c3.387-0.281,6.708-1.331,9.641-3.05
		c-0.357,6.191-2.827,12.041-5.948,17.4c-2.903,4.986-6.541,9.812-11.661,12.472c11.776-1.744,23.279-5.317,33.97-10.551
		c-3.469,2.85-7.003,5.773-9.358,9.595c4.48-2.743,10.129-2.471,15.155-4c4.928-1.499,9.202-4.72,14.151-6.149
		c-0.945,2.191-1.759,4.484-1.971,6.861c1.972-1.693,4.388-2.86,6.936-3.373c3.039-0.612,6.182-0.302,9.272-0.549
		c7.375-0.589,14.416-4.533,18.77-10.515c0.014,1.501,0.029,3.003,0.043,4.504c3.37-4.471,7.227-8.516,11.356-12.285
		c1.323-0.11,2.651-0.158,3.99-0.089c7.779,0.399,15.397,3.304,21.578,8.023c1.764,1.347,3.439,2.845,5.414,3.856
		c1.948,0.997,4.124,1.483,6.303,1.686c2.797,0.26,5.882-0.037,7.939-1.95c2.056-1.914,2.253-5.803-0.196-7.18
		c1.105-1.696,1.699-3.72,1.686-5.744c-1.203,0.714-2.516,1.757-3.719,2.471c-2.295-1.791-3.553-4.727-3.506-7.637
		c3.95,4.015,10.08,4.7,15.694,5.154c1.906,0.154,3.834,0.308,5.723,0.012c1.889-0.296,3.577-1.91,4.819-3.365
		c1.73,0.993,4.001,0.519,5.629-0.635c1.627-1.154,2.75-2.87,3.833-4.546c0.376-0.581,0.764-1.2,0.791-1.892
		C430.963,181.275,430.134,180.38,429.349,179.637z M386.869,148.979c-2.356-2.419-4.687-5.263-6.74-7.945
		c2.406,0.573,4.857,1.164,6.975,2.442c1.279,0.772,2.4,1.774,3.513,2.769l2.832,2.533
		C391.349,148.996,388.963,149.237,386.869,148.979z"/>
	<path style="fill:#2B2B2B;" d="M233.902,297.293c-1.457-2.02-4.055-3.154-6.526-2.849c-1.351,0.166-2.618,0.721-3.872,1.25
		c-10.058,4.247-20.746,7.027-31.528,8.748c-5.535-5.637-13.809-7.887-21.707-7.747c-7.898,0.139-14.445,4.914-22.255,3.73
		c-7.356-1.115-14.712-2.231-22.069-3.346c-2.62-0.397-5.556-0.722-7.683,0.859c-0.365,0.272-0.714,0.633-0.762,1.085
		c-0.043,0.4,0.159,0.783,0.368,1.127c2.822,4.641,8.303,9.678,8.303,9.679c-5.475,4.407-12.22,7.824-17.033,12.936
		c-6.299,6.692-13.158,17.14-22.323,19.97c1.315,0.784,2.891,1.121,4.412,0.946c-3.189,3.046-3.774,7.926-6.294,11.545
		c-2.669,3.835-7.347,6.022-9.629,10.099c2.512-0.474,4.9-1.59,6.875-3.214c-2.773,8.874-5.646,17.947-11.266,25.353
		c2.525,0.287,5.13-0.174,7.403-1.312c-5.09,7.284-7.215,16.172-9.237,24.825c11.5,2.656,23.122,4.24,34.922,3.976
		c-2.48,2.255-5.631,3.763-8.944,4.281c11.712,2.552,24.162,1.617,35.362-2.654c-2.904,1.816-4.418,5.64-3.62,8.971
		c3.234-3.587,6.899-7.408,11.694-7.985c1.772-0.213,3.561,0.046,5.344,0.128c6.518,0.301,13.119-1.863,18.194-5.964
		c-0.367,2.075-1.067,4.091-2.066,5.947c4.202-1.263,8.722-1.335,12.824-2.892c4.722-1.792,8.647-5.582,10.603-10.239
		c1.58-3.76,1.988-8.132,4.631-11.238c0.228,1.754,0.928,3.576,1.155,5.329c1.706-2.067,3.63-3.954,5.729-5.621
		c1.572-1.248,3.289-2.425,4.294-4.162c0.863-1.49,1.111-3.246,1.344-4.952c1.424-10.449,6.864-19.958,15.231-26.377
		c0.167-0.128,0.335-0.257,0.504-0.385c5.702-0.817,11.733-1.778,16.129-5.5c2.263-1.916,3.954-4.499,4.805-7.34
		c0.589-1.966,0.747-4.209-0.305-5.971c-1.052-1.762-3.863-2.7-5.487-1.445c-0.904-1.547-2.591-2.61-4.377-2.756
		c0.341,1.45,0.607,2.818,0.948,4.269c-1.428,0.661-2.981,1.052-4.552,1.147c-0.697,0.042-1.557-0.226-1.35-0.893
		c-1.829-1.886-1.46-5.093-0.021-7.291c1.439-2.198,3.686-3.707,5.669-5.431c3.038-2.642,5.567-5.956,6.863-9.767
		c1.297-3.811,1.699-8.155-0.056-11.778C235.615,302.135,235.359,299.313,233.902,297.293z M180.736,313.462
		c-3.707-0.768-7.657-1.945-11.247-3.147c2.595-0.978,5.241-1.968,8.01-2.11c1.672-0.086,3.342,0.141,5.001,0.367
		c1.406,0.191,2.813,0.383,4.22,0.575C184.908,310.665,182.843,312.386,180.736,313.462z"/>
	<path style="fill:#2B2B2B;" d="M208.747,175.571c-1.393-1.793-3.095-3.375-4.497-5.163c-3.721-4.744-5.345-11.213-6.657-16.91
		c1.945,2.249,4.29,4.213,6.917,5.793c-0.014-6.456-3.321-12.521-7.085-18.003c-0.006-0.009-0.012-0.018-0.018-0.026
		c-1.15-1.674-1.829-3.615-2.006-5.638c-0.316-3.617-0.94-7.213-1.664-10.624c3.147-2.75,4.457-7.014,5.344-11.098
		c2.451-11.294,2.76-23.05,0.891-34.455c-0.326-1.989-1.476-3.795-3.258-4.738c-3.785-2.003-6.918,1.23-9.169,4.097
		c-4.911,6.254-9.822,12.507-14.733,18.76c-6.332-2.581-16.601-3.797-23.431-4.115c-6.83,0.318-17.099,1.535-23.431,4.115
		c-5.473-6.968-10.945-13.937-16.418-20.905c-1.072-1.365-2.614-2.333-4.337-2.536c-4.648-0.549-6.332,4.361-6.849,8.342
		c-1.355,10.452-0.902,21.136,1.334,31.435c0.886,4.084,2.197,8.347,5.344,11.098c-0.724,3.411-1.348,7.007-1.664,10.624
		c-0.177,2.023-0.856,3.964-2.006,5.638c-0.006,0.009-0.012,0.018-0.018,0.026c-3.764,5.482-7.071,11.547-7.085,18.003
		c2.628-1.58,4.973-3.544,6.917-5.793c-1.313,5.697-2.936,12.165-6.657,16.91c-1.402,1.787-3.104,3.37-4.497,5.163
		c-3.297,4.244-4.727,9.644-3.913,14.781c1.537-2.062,3.075-4.123,4.612-6.185c-0.583,4.671-0.44,10.056,0.787,14.624
		c1.227,4.568,3.701,8.927,7.496,12.134c-0.383-2.74-0.008-5.564,1.084-8.143c3.488,8.685,6.951,17.802,13.471,24.911l0.174-5.75
		c3.459,9.624,12.479,17.26,14.505,27.214c0.871-2.697,1.095-5.564,0.651-8.345c2.541,3.577,5.24,7.071,8.52,10.115
		c3.281,3.044,7.369,5.525,11.979,6.339c4.609-0.814,8.698-3.295,11.979-6.339c3.281-3.044,5.979-6.538,8.52-10.115
		c-0.443,2.781-0.22,5.648,0.651,8.345c2.026-9.954,11.046-17.59,14.505-27.214c0.058,1.917,0.116,3.833,0.174,5.75
		c6.519-7.109,9.982-16.226,13.471-24.911c1.092,2.579,1.467,5.403,1.084,8.143c3.795-3.206,6.269-7.566,7.496-12.134
		c1.227-4.567,1.37-9.952,0.787-14.624c1.537,2.062,3.075,4.123,4.612,6.185C213.474,185.215,212.045,179.815,208.747,175.571z
		 M130.188,142.913c-2.741-1.972-5.532-4.367-8.02-6.651c2.47,0.146,4.985,0.301,7.293,1.191c1.393,0.537,2.672,1.329,3.941,2.116
		c1.076,0.667,2.153,1.334,3.229,2.001C134.604,142.15,132.296,142.802,130.188,142.913z M168.573,142.913
		c-2.107-0.111-4.415-0.763-6.444-1.343c1.076-0.667,2.153-1.334,3.229-2.001c1.269-0.787,2.548-1.578,3.941-2.116
		c2.308-0.89,4.824-1.046,7.293-1.191C174.105,138.546,171.315,140.941,168.573,142.913z"/>
</g>
</svg>
